<svg xmlns="http://www.w3.org/2000/svg" viewBox="0 0 64 64">
  <path d="M32 4C16.5 4 4 16.5 4 32s12.5 28 28 28 28-12.5 28-28S47.5 4 32 4zm0 8c8 0 15.3 2.9 20.6 7.6-1.8-.1-3.6.3-5.2 1.1-3.7-2.3-9-4.7-15.4-4.7s-11.7 2.4-15.4 4.7c-1.6-.8-3.4-1.2-5.2-1.1C16.7 14.9 24 12 32 12zm0 8c5.3 0 10 1.8 13.2 3.8-4.4 3-8.7 7.2-11.2 11.8-.7-.2-1.3-.3-2-.3s-1.3.1-2 .3c-2.5-4.6-6.8-8.8-11.2-11.8C22 21.8 26.7 20 32 20zm-16.7 8.1c4 2.5 7.9 6.3 10.1 10.1-2.8 2-4.6 5.2-4.6 8.8 0 .9.1 1.7.3 2.5-5.5-3.5-9.1-9.6-9.1-16.5 0-1.8.3-3.4.7-5 1 .3 1.8.3 2.6.1zm33.4 0c.8.2 1.6.2 2.6-.1.4 1.6.7 3.2.7 5 0 6.9-3.6 13-9.1 16.5.2-.8.3-1.6.3-2.5 0-3.6-1.8-6.8-4.6-8.8 2.2-3.8 6.1-7.6 10.1-10.1zM32 39.5a7.5 7.5 0 110 15 7.5 7.5 0 010-15z"/>
</svg>
