<svg width="512" height="512" viewBox="0 0 512 512" fill="none" xmlns="http://www.w3.org/2000/svg" role="img" aria-labelledby="title desc">
  <title id="title">Kkubuck avatar</title>
  <desc id="desc">Rounded square avatar with a stylized K and paper accent.</desc>
  <defs>
    <linearGradient id="bg" x1="64" y1="64" x2="448" y2="448" gradientUnits="userSpaceOnUse">
      <stop stop-color="#0F172A"/>
      <stop offset="0.52" stop-color="#1D4ED8"/>
      <stop offset="1" stop-color="#0F766E"/>
    </linearGradient>
    <linearGradient id="paper" x1="168" y1="160" x2="352" y2="352" gradientUnits="userSpaceOnUse">
      <stop stop-color="#F8FAFC"/>
      <stop offset="1" stop-color="#CBD5E1"/>
    </linearGradient>
  </defs>
  <rect x="40" y="40" width="432" height="432" rx="104" fill="url(#bg)"/>
  <path d="M152 144C152 135.163 159.163 128 168 128H270.5C317.196 128 352 162.804 352 209.5V222.5C352 238.299 347.874 253.62 340.042 267.176L326.5 290.5L352.5 383H297.5L277 310.5C269.841 284.893 246.508 267 219.5 267H208V383H152V144Z" fill="url(#paper)"/>
  <path d="M208 128H248V383H208V128Z" fill="#0F172A"/>
  <path d="M289 191H357L274 286L357 383H289L228 307L289 191Z" fill="#F59E0B"/>
  <circle cx="367" cy="152" r="22" fill="#F8FAFC" fill-opacity="0.88"/>
  <circle cx="367" cy="152" r="8" fill="#0F172A" fill-opacity="0.45"/>
</svg>
