<svg xmlns="http://www.w3.org/2000/svg">
  <symbol id="home" viewBox="0 0 24 24"><path d="M3 11.5 12 4l9 7.5v8a1 1 0 0 1-1 1h-5v-6H9v6H4a1 1 0 0 1-1-1z" fill="none" stroke="currentColor" stroke-width="1.7" stroke-linejoin="round"/></symbol>
  <symbol id="notes" viewBox="0 0 24 24"><path d="M6 3.5h9l3 3V20a1 1 0 0 1-1 1H6a1 1 0 0 1-1-1V4.5a1 1 0 0 1 1-1Z" fill="none" stroke="currentColor" stroke-width="1.7"/><path d="M15 3.5v4h4M8 11h8M8 15h8M8 7h3" fill="none" stroke="currentColor" stroke-width="1.7" stroke-linecap="round"/></symbol>
  <symbol id="paper" viewBox="0 0 24 24"><path d="M5 3.5h11l3 3V20a1 1 0 0 1-1 1H5a1 1 0 0 1-1-1V4.5a1 1 0 0 1 1-1Z" fill="none" stroke="currentColor" stroke-width="1.7"/><path d="M15.5 3.5v4h4M7.5 11h9M7.5 15h9M7.5 18h5" fill="none" stroke="currentColor" stroke-width="1.7" stroke-linecap="round"/><circle cx="9" cy="7" r="1.4" fill="currentColor"/></symbol>
  <symbol id="project" viewBox="0 0 24 24"><path d="M4 7.5h16v12H4zM8 7.5V5a1 1 0 0 1 1-1h6a1 1 0 0 1 1 1v2.5" fill="none" stroke="currentColor" stroke-width="1.7" stroke-linejoin="round"/><path d="M4 12h16M10 12v2h4v-2" fill="none" stroke="currentColor" stroke-width="1.7"/></symbol>
  <symbol id="cv" viewBox="0 0 24 24"><rect x="4" y="3" width="16" height="18" rx="2" fill="none" stroke="currentColor" stroke-width="1.7"/><circle cx="9" cy="9" r="2.2" fill="none" stroke="currentColor" stroke-width="1.7"/><path d="M6.5 15c.6-2 1.4-3 2.5-3s1.9 1 2.5 3M14 8h3M14 11h3M14 15h3" fill="none" stroke="currentColor" stroke-width="1.7" stroke-linecap="round"/></symbol>
  <symbol id="about" viewBox="0 0 24 24"><circle cx="12" cy="12" r="9" fill="none" stroke="currentColor" stroke-width="1.7"/><path d="M12 10.5V17M12 7.2v.1" fill="none" stroke="currentColor" stroke-width="2" stroke-linecap="round"/></symbol>
  <symbol id="github" viewBox="0 0 24 24"><path d="M12 2.8a9.2 9.2 0 0 0-2.9 17.9c.46.08.63-.2.63-.45v-1.77c-2.56.56-3.1-1.09-3.1-1.09-.42-1.06-1.02-1.34-1.02-1.34-.84-.57.06-.56.06-.56.93.07 1.42.96 1.42.96.82 1.42 2.16 1 2.69.77.08-.6.32-1 .59-1.24-2.05-.23-4.2-1.02-4.2-4.55 0-1 .36-1.83.95-2.47-.1-.23-.41-1.17.09-2.44 0 0 .77-.25 2.53.94A8.8 8.8 0 0 1 12 7.15c.78 0 1.55.1 2.28.31 1.76-1.19 2.53-.94 2.53-.94.5 1.27.19 2.21.1 2.44.59.64.94 1.47.94 2.47 0 3.54-2.16 4.31-4.21 4.54.33.29.62.85.62 1.71v2.57c0 .25.17.54.63.45A9.2 9.2 0 0 0 12 2.8Z" fill="currentColor"/></symbol>
  <symbol id="search" viewBox="0 0 24 24"><circle cx="10.8" cy="10.8" r="6.8" fill="none" stroke="currentColor" stroke-width="1.8"/><path d="m16 16 4 4" fill="none" stroke="currentColor" stroke-width="1.8" stroke-linecap="round"/></symbol>
  <symbol id="sun" viewBox="0 0 24 24"><circle cx="12" cy="12" r="3.5" fill="none" stroke="currentColor" stroke-width="1.7"/><path d="M12 2.5v2M12 19.5v2M2.5 12h2M19.5 12h2M5.3 5.3l1.4 1.4M17.3 17.3l1.4 1.4M18.7 5.3l-1.4 1.4M6.7 17.3l-1.4 1.4" fill="none" stroke="currentColor" stroke-width="1.7" stroke-linecap="round"/></symbol>
  <symbol id="moon" viewBox="0 0 24 24"><path d="M20 15.4A8.3 8.3 0 0 1 8.6 4a8.5 8.5 0 1 0 11.4 11.4Z" fill="none" stroke="currentColor" stroke-width="1.7" stroke-linejoin="round"/></symbol>
  <symbol id="orbit" viewBox="0 0 24 24"><circle cx="12" cy="12" r="2" fill="currentColor"/><ellipse cx="12" cy="12" rx="9" ry="4.5" fill="none" stroke="currentColor" stroke-width="1.5" transform="rotate(28 12 12)"/><ellipse cx="12" cy="12" rx="9" ry="4.5" fill="none" stroke="currentColor" stroke-width="1.5" transform="rotate(-28 12 12)"/><circle cx="18.8" cy="8.4" r="1.1" fill="currentColor"/></symbol>
  <symbol id="close" viewBox="0 0 24 24"><path d="m6 6 12 12M18 6 6 18" fill="none" stroke="currentColor" stroke-width="1.8" stroke-linecap="round"/></symbol>
  <symbol id="arrow" viewBox="0 0 24 24"><path d="M5 12h14M14 7l5 5-5 5" fill="none" stroke="currentColor" stroke-width="1.8" stroke-linecap="round" stroke-linejoin="round"/></symbol>
  <symbol id="arrow-up" viewBox="0 0 24 24"><path d="M12 19V5M7 10l5-5 5 5" fill="none" stroke="currentColor" stroke-width="1.8" stroke-linecap="round" stroke-linejoin="round"/></symbol>
  <symbol id="external" viewBox="0 0 24 24"><path d="M14 5h5v5M19 5l-8 8" fill="none" stroke="currentColor" stroke-width="1.7" stroke-linecap="round" stroke-linejoin="round"/><path d="M18 13v5a1 1 0 0 1-1 1H6a1 1 0 0 1-1-1V7a1 1 0 0 1 1-1h5" fill="none" stroke="currentColor" stroke-width="1.7"/></symbol>
  <symbol id="file" viewBox="0 0 24 24"><path d="M6 3.5h9l3 3V20a1 1 0 0 1-1 1H6a1 1 0 0 1-1-1V4.5a1 1 0 0 1 1-1Z" fill="none" stroke="currentColor" stroke-width="1.7"/><path d="M15 3.5v4h4M8 12h8M8 16h6" fill="none" stroke="currentColor" stroke-width="1.7" stroke-linecap="round"/></symbol>
  <symbol id="copy" viewBox="0 0 24 24"><rect x="8" y="8" width="11" height="11" rx="2" fill="none" stroke="currentColor" stroke-width="1.7"/><path d="M16 8V6a2 2 0 0 0-2-2H6a2 2 0 0 0-2 2v8a2 2 0 0 0 2 2h2" fill="none" stroke="currentColor" stroke-width="1.7"/></symbol>
  <symbol id="share" viewBox="0 0 24 24"><circle cx="18" cy="5" r="2.3" fill="none" stroke="currentColor" stroke-width="1.7"/><circle cx="6" cy="12" r="2.3" fill="none" stroke="currentColor" stroke-width="1.7"/><circle cx="18" cy="19" r="2.3" fill="none" stroke="currentColor" stroke-width="1.7"/><path d="m8 11 7.8-4.7M8 13l7.8 4.7" fill="none" stroke="currentColor" stroke-width="1.7"/></symbol>
  <symbol id="chevron" viewBox="0 0 24 24"><path d="m8 10 4 4 4-4" fill="none" stroke="currentColor" stroke-width="1.8" stroke-linecap="round" stroke-linejoin="round"/></symbol>
  <symbol id="clock" viewBox="0 0 24 24"><circle cx="12" cy="12" r="9" fill="none" stroke="currentColor" stroke-width="1.7"/><path d="M12 7v5l3.5 2" fill="none" stroke="currentColor" stroke-width="1.7" stroke-linecap="round"/></symbol>
  <symbol id="tag" viewBox="0 0 24 24"><path d="m4 12 8-8h6l2 2v6l-8 8Z" fill="none" stroke="currentColor" stroke-width="1.7" stroke-linejoin="round"/><circle cx="16" cy="8" r="1.3" fill="currentColor"/></symbol>
  <symbol id="filter" viewBox="0 0 24 24"><path d="M4 6h16M7 12h10M10 18h4" fill="none" stroke="currentColor" stroke-width="1.8" stroke-linecap="round"/></symbol>
  <symbol id="download" viewBox="0 0 24 24"><path d="M12 4v11M8 11l4 4 4-4M5 20h14" fill="none" stroke="currentColor" stroke-width="1.8" stroke-linecap="round" stroke-linejoin="round"/></symbol>
  <symbol id="mail" viewBox="0 0 24 24"><rect x="3.5" y="5" width="17" height="14" rx="2" fill="none" stroke="currentColor" stroke-width="1.7"/><path d="m5 7 7 5 7-5" fill="none" stroke="currentColor" stroke-width="1.7" stroke-linejoin="round"/></symbol>
  <symbol id="location" viewBox="0 0 24 24"><path d="M19 10c0 5-7 11-7 11S5 15 5 10a7 7 0 1 1 14 0Z" fill="none" stroke="currentColor" stroke-width="1.7"/><circle cx="12" cy="10" r="2.2" fill="none" stroke="currentColor" stroke-width="1.7"/></symbol>
  <symbol id="phone" viewBox="0 0 24 24"><path d="M8.1 4.3 5.7 5.6c-1 .6-1.3 1.8-.8 2.8 2.2 4.6 5.9 8.3 10.5 10.5 1 .5 2.2.2 2.8-.8l1.3-2.4-4.2-2-1.2 1.7c-2.2-1.2-4-3-5.2-5.2l1.2-1.7Z" fill="none" stroke="currentColor" stroke-width="1.6" stroke-linejoin="round"/></symbol>
  <symbol id="code" viewBox="0 0 24 24"><path d="m8 7-5 5 5 5M16 7l5 5-5 5M14 4l-4 16" fill="none" stroke="currentColor" stroke-width="1.7" stroke-linecap="round" stroke-linejoin="round"/></symbol>
</svg>
